#!OML:ASF I:\Random Stuff\random\construction\7_22_03\Session 2\subj1.ASF
:FULLY-SPECIFIED
:DEGREES
3018
root 4.74749 17.8727 0.51276 32.8384 97.254 19.7838
lowerback 0.653543 -0.385232 -5.4875
upperback -1.68612 -0.597134 -0.494065
thorax -2.05336 -0.204024 2.58042
lowerneck -25.1404 -0.622673 2.41163
upperneck 41.9107 -1.9706 3.08466
head 21.1815 0.647925 0.890372
rclavicle 1.21259e-014 -6.36111e-015
rhumerus -9.76213 32.4708 -77.0814
rradius 116.079
rwrist -24.3374
rhand -0.933983 32.4993
rfingers 7.12502
rthumb 24.6955 4.07301
lclavicle 1.21259e-014 -6.36111e-015
lhumerus -16.6784 -31.1077 90.9933
lradius 112.93
lwrist 45.135
lhand -10.7148 46.7179
lfingers 7.12502
lthumb 15.2952 796.132
rfemur -8.99071 8.68014 22.25
rtibia 5.57801
rfoot -4.33015 -34.3171
rtoes -2.782
lfemur -24.2039 -21.2591 -8.81576
ltibia 20.7932
lfoot -9.3463 19.1027
ltoes -32.5771
3019
root 4.75452 17.8731 0.512695 33.0522 97.1679 19.9753
lowerback 0.68237 -0.362351 -5.48369
upperback -1.64334 -0.567063 -0.393025
thorax -2.0271 -0.190542 2.68192
lowerneck -25.2027 -0.568163 2.42857
upperneck 41.8509 -1.7905 2.83513
head 21.1464 0.67446 0.797646
rclavicle 5.1684e-015 1.27222e-014
rhumerus -11.5047 31.863 -78.2321
rradius 116.148
rwrist -25.4163
rhand -0.0904101 32.1804
rfingers 7.12502
rthumb 25.5038 3.86726
lclavicle 5.1684e-015 1.27222e-014
lhumerus -16.4876 -30.9849 90.9037
lradius 113.249
lwrist 45.1161
lhand -10.8836 46.6609
lfingers 7.12502
lthumb 15.1327 796.088
rfemur -8.99945 8.72682 22.2317
rtibia 5.57855
rfoot -4.37934 -34.2803
rtoes -2.73568
lfemur -24.1692 -21.1152 -8.86243
ltibia 20.7932
lfoot -9.32452 18.9751
ltoes -33.039
3020
root 4.7624 17.8722 0.512171 33.6365 97.1015 20.5584
lowerback 0.618758 -0.330651 -5.31368
upperback -1.53416 -0.515425 -0.356812
thorax -1.88364 -0.173766 2.62204
lowerneck -25.3377 -0.529416 2.48941
upperneck 41.8116 -1.72603 2.72116
head 21.1544 0.687289 0.741289
rclavicle -1.53064e-014 -4.77083e-015
rhumerus -13.0428 31.2562 -79.3237
rradius 116.087
rwrist -25.6393
rhand 0.481021 31.7629
rfingers 7.12502
rthumb 26.051 3.52916
lclavicle -1.53064e-014 -4.77083e-015
lhumerus -16.3216 -30.96 90.6828
lradius 113.69
lwrist 45.0279
lhand -10.9952 46.1831
lfingers 7.12502
lthumb 15.0251 795.618
rfemur -8.97877 8.78385 22.2735
rtibia 5.56103
rfoot -4.2905 -34.2583
rtoes -3.03605
lfemur -24.1322 -21.1377 -8.8206
ltibia 20.8044
lfoot -9.36471 19.0562
ltoes -32.0332
3021
root 4.76842 17.8704 0.512447 33.8042 97.0902 20.7215
lowerback 0.640277 -0.334708 -5.17727
upperback -1.48789 -0.519073 -0.299585
thorax -1.84797 -0.179577 2.60469
lowerneck -25.3679 -0.496781 2.4989
upperneck 41.7592 -1.66702 2.67508
head 21.1244 0.700044 0.727464
rclavicle 1.05356e-014 -1.43125e-014
rhumerus -14.5247 30.7761 -80.3204
rradius 115.923
rwrist -25.6228
rhand 0.719146 31.3762
rfingers 7.12502
rthumb 26.279 3.17621
lclavicle 1.05356e-014 -1.43125e-014
lhumerus -16.3089 -30.9211 90.5486
lradius 114.221
lwrist 44.8583
lhand -11.175 45.4919
lfingers 7.12502
lthumb 14.8519 794.94
rfemur -8.94298 8.76583 22.2984
rtibia 5.51497
rfoot -4.20063 -34.2367
rtoes -3.25039
lfemur -24.1267 -21.2039 -8.79499
ltibia 20.8207
lfoot -9.46594 19.1468
ltoes -30.6181
3022
root 4.77393 17.8693 0.513692 33.6379 97.0814 20.5619
lowerback 0.753151 -0.327156 -5.15246
upperback -1.50138 -0.515384 -0.170987
thorax -1.92483 -0.175578 2.72423
lowerneck -25.3423 -0.460589 2.59701
upperneck 41.7126 -1.5344 2.39667
head 21.0738 0.720589 0.594965
rclavicle -1.68967e-014 -3.26007e-014
rhumerus -15.9346 30.3321 -81.1052
rradius 115.672
rwrist -25.9343
rhand 1.02653 31.3007
rfingers 7.12502
rthumb 26.5732 3.14495
lclavicle -1.68967e-014 -3.26007e-014
lhumerus -16.3563 -30.9694 90.5629
lradius 114.757
lwrist 44.5673
lhand -11.3014 45.4284
lfingers 7.12502
lthumb 14.7301 794.885
rfemur -8.91662 8.72208 22.2879
rtibia 5.52024
rfoot -4.32652 -34.2158
rtoes -3.00249
lfemur -24.1015 -21.1963 -8.82566
ltibia 20.823
lfoot -9.58346 19.1723
ltoes -30.0903
3023
root 4.77926 17.8695 0.515247 33.2735 97.061 20.2086
lowerback 0.827987 -0.303521 -5.18509
upperback -1.4905 -0.487659 -0.010555
thorax -1.95675 -0.160102 2.90795
lowerneck -25.4936 -0.485284 2.43393
upperneck 41.9549 -1.52085 2.48925
head 21.2938 0.724285 0.687118
rclavicle -1.61016e-014 1.43125e-014
rhumerus -17.112 29.795 -81.6853
rradius 115.421
rwrist -26.572
rhand 1.48592 31.064
rfingers 7.12502
rthumb 27.0128 2.97565
lclavicle -1.61016e-014 1.43125e-014
lhumerus -16.332 -31.1007 90.556
lradius 115.293
lwrist 44.1918
lhand -11.4972 45.8324
lfingers 7.12502
lthumb 14.5415 795.303
rfemur -8.91901 8.67439 22.2504
rtibia 5.59615
rfoot -4.60276 -34.2109
rtoes -2.47205
lfemur -24.0594 -21.0879 -8.91107
ltibia 20.806
lfoot -9.63625 19.106
ltoes -30.2169
3024
root 4.78479 17.8691 0.515974 32.8934 97.0498 19.839
lowerback 0.86355 -0.264072 -5.15417
upperback -1.46348 -0.435207 0.105688
thorax -1.95291 -0.134668 3.00951
lowerneck -25.2572 -0.398797 2.7746
upperneck 41.7464 -1.40439 2.16619
head 21.0642 0.767629 0.47704
rclavicle -6.65929e-015 1.35174e-014
rhumerus -18.1344 29.0488 -82.2104
rradius 115.201
rwrist -27.4679
rhand 1.7207 30.5338
rfingers 7.12502
rthumb 27.2374 2.48045
lclavicle -6.65929e-015 1.35174e-014
lhumerus -16.2444 -31.301 90.441
lradius 115.841
lwrist 43.9249
lhand -11.7261 46.3837
lfingers 7.12502
lthumb 14.3209 795.87
rfemur -8.94744 8.61768 22.2127
rtibia 5.72739
rfoot -4.82846 -34.1832
rtoes -2.14
lfemur -24.01 -20.9685 -9.00367
ltibia 20.7736
lfoot -9.63333 18.9862
ltoes -30.3248
3025
root 4.79135 17.8682 0.515097 32.5657 97.0397 19.5356
lowerback 0.887247 -0.201405 -5.05642
upperback -1.44024 -0.350024 0.20587
thorax -1.94971 -0.0938439 3.05608
lowerneck -25.351 -0.504771 2.68562
upperneck 41.9327 -1.56897 2.27672
head 21.2275 0.719414 0.518483
rclavicle -2.28602e-015 4.77083e-015
rhumerus -19.0441 28.1109 -82.6282
rradius 114.927
rwrist -28.8553
rhand 1.52635 30.1285
rfingers 7.12502
rthumb 27.0515 2.04607
lclavicle -2.28602e-015 4.77083e-015
lhumerus -16.0524 -31.4976 90.2796
lradius 116.311
lwrist 43.9337
lhand -11.5815 46.7871
lfingers 7.12502
lthumb 14.4603 796.263
rfemur -8.99041 8.56245 22.1742
rtibia 5.91553
rfoot -4.87101 -34.1368
rtoes -2.33458
lfemur -23.9372 -20.988 -9.06668
ltibia 20.7308
lfoot -9.63098 18.9714
ltoes -30.4446
3026
root 4.79729 17.8675 0.51405 32.0029 97.0523 19.0102
lowerback 0.909537 -0.159516 -4.94253
upperback -1.41879 -0.292001 0.310848
thorax -1.94516 -0.0667221 3.09914
lowerneck -25.3321 -0.571717 2.66481
upperneck 42.0337 -1.70751 2.39644
head 21.2982 0.690414 0.555726
rclavicle -1.36167e-014 1.19271e-014
rhumerus -19.7365 27.059 -82.9394
rradius 114.645
rwrist -31.2107
rhand 1.02144 29.3107
rfingers 7.12502
rthumb 26.5684 1.15418
lclavicle -1.36167e-014 1.19271e-014
lhumerus -15.7867 -31.5714 90.0477
lradius 116.727
lwrist 44.1135
lhand -11.27 46.4263
lfingers 7.12502
lthumb 14.7604 795.881
rfemur -9.02124 8.47181 22.1184
rtibia 6.10173
rfoot -4.95687 -34.1143
rtoes -2.32916
lfemur -23.8554 -21.0699 -9.14302
ltibia 20.6883
lfoot -9.59585 18.9674
ltoes -30.2507
3027
root 4.80213 17.8668 0.5131 31.3358 97.0897 18.3848
lowerback 0.903551 -0.130783 -4.74942
upperback -1.37309 -0.24839 0.38539
thorax -1.89854 -0.0496485 3.06634
lowerneck -25.1631 -0.548122 2.71989
upperneck 41.9852 -1.76749 2.58296
head 21.2191 0.706677 0.627471
rclavicle 1.14301e-014 -1.63003e-014
rhumerus -20.1488 25.785 -83.1322
rradius 114.406
rwrist -34.7873
rhand 0.497967 28.1186
rfingers 7.12502
rthumb 26.0673 -0.112722
lclavicle 1.14301e-014 -1.63003e-014
lhumerus -15.7334 -31.5289 89.8046
lradius 117.384
lwrist 44.1403
lhand -11.0735 45.4976
lfingers 7.12502
lthumb 14.9497 794.938
rfemur -9.02715 8.35446 22.0688
rtibia 6.25643
rfoot -5.16998 -34.1013
rtoes -2.05665
lfemur -23.7714 -21.0943 -9.24258
ltibia 20.6463
lfoot -9.49959 18.8792
ltoes -29.9734
3028
root 4.80697 17.8661 0.511911 30.721 97.1709 17.825
lowerback 0.932811 -0.0953127 -4.58309
upperback -1.33919 -0.197409 0.531293
thorax -1.88428 -0.0268998 3.12225
lowerneck -25.046 -0.525278 2.80874
upperneck 41.9811 -1.73665 2.53217
head 21.1785 0.728 0.592945
rclavicle 1.41137e-014 -1.74931e-014
rhumerus -20.3263 24.281 -83.0751
rradius 114.138
rwrist -38.7776
rhand 0.0334013 26.8136
rfingers 7.12502
rthumb 25.6224 -1.48254
lclavicle 1.41137e-014 -1.74931e-014
lhumerus -16.0834 -31.199 89.8624
lradius 118.318
lwrist 44.0527
lhand -10.849 44.998
lfingers 7.12502
lthumb 15.166 794.422
rfemur -9.0271 8.20487 22.0562
rtibia 6.43528
rfoot -5.23551 -34.0879
rtoes -2.40209
lfemur -23.6838 -21.1386 -9.3112
ltibia 20.5926
lfoot -9.47029 18.8008
ltoes -30.2935
3029
root 4.81251 17.8654 0.511279 29.9976 97.3259 17.1982
lowerback 0.986051 -0.0974411 -4.38958
upperback -1.28106 -0.196404 0.698037
thorax -1.8541 -0.0301316 3.18562
lowerneck -25.1236 -0.516032 3.00677
upperneck 42.1201 -1.67552 2.22834
head 21.2893 0.746477 0.419887
rclavicle -2.38542e-014 1.66979e-014
rhumerus -20.2559 22.7112 -82.983
rradius 113.76
rwrist -41.9677
rhand -1.278 24.9401
rfingers 7.12502
rthumb 24.3657 -3.53086
lclavicle -2.38542e-014 1.66979e-014
lhumerus -16.3594 -30.5748 89.9154
lradius 119.185
lwrist 44.1303
lhand -10.5194 44.965
lfingers 7.12502
lthumb 15.4834 794.365
rfemur -9.0083 7.98427 22.0855
rtibia 6.69443
rfoot -5.30631 -34.0709
rtoes -2.87426
lfemur -23.5601 -21.2633 -9.34448
ltibia 20.508
lfoot -9.56301 18.7207
ltoes -30.4832
3030
root 4.81621 17.8639 0.510676 29.0256 97.5317 16.3637
lowerback 1.04917 -0.142064 -4.11373
upperback -1.18906 -0.250643 0.841629
thorax -1.79003 -0.0634965 3.17997
lowerneck -25.1625 -0.454064 3.14876
upperneck 42.2126 -1.54787 2.02753
head 21.3605 0.793051 0.324646
rclavicle -1.51076e-014 1.27222e-014
rhumerus -19.9732 21.2251 -82.9333
rradius 113.2
rwrist -44.0205
rhand -3.506 22.9238
rfingers 7.12502
rthumb 22.2283 -5.81802
lclavicle -1.51076e-014 1.27222e-014
lhumerus -16.2995 -29.9522 89.687
lradius 119.828
lwrist 44.4743
lhand -10.1712 44.8603
lfingers 7.12502
lthumb 15.8187 794.234
rfemur -8.93574 7.70629 22.1176
rtibia 6.96121
rfoot -5.48132 -34.0342
rtoes -2.95195
lfemur -23.406 -21.3368 -9.41679
ltibia 20.4128
lfoot -9.5939 18.478
ltoes -30.7574
3031
root 4.81968 17.8611 0.509074 27.3022 97.7802 14.8107
lowerback 1.10845 -0.207609 -3.91138
upperback -1.05973 -0.332968 1.013
thorax -1.68297 -0.111052 3.24484
lowerneck -25.1434 -0.344539 3.17023
upperneck 42.2418 -1.31273 1.89921
head 21.3728 0.866478 0.312936
rclavicle 2.97183e-014 -4.17448e-015
rhumerus -19.4277 19.8639 -82.6913
rradius 112.384
rwrist -45.166
rhand -5.13108 21.4442
rfingers 7.12502
rthumb 20.6675 -7.4754
lclavicle 2.97183e-014 -4.17448e-015
lhumerus -16.1004 -29.4382 89.3515
lradius 120.512
lwrist 45.0649
lhand -9.82357 44.8686
lfingers 7.12502
lthumb 16.1535 794.215
rfemur -8.75427 7.33946 22.064
rtibia 7.11575
rfoot -5.72488 -33.9827
rtoes -2.51407
lfemur -23.237 -21.2204 -9.67272
ltibia 20.3674
lfoot -9.48351 17.955
ltoes -32.0506
